# xmcd
#
# Track frame offsets: 
#        182
#        11900
#        23615
#        37597
#        52095
#        62915
#        73352
#        87117
#        98987
#        114265
#        125055
#        134747
#
# Disc length: 1944 seconds
#
# Revision: 2
# Processed by: cddbd v1.5.1PL0 Copyright (c) Steve Scherf et al.
# Submitted via: ExactAudioCopy v0.95a5
#
DISCID=a907960c
DTITLE=Tennessee Ernie Ford - Sixteen Tons [Capitol]
DYEAR=1995
DGENRE=Country
TTITLE0=Sixteen Tons
TTITLE1=Shot-Gun Boogie
TTITLE2=Bright Lights And Blonde-Haired Women
TTITLE3=The Cry Of The Wild Goose
TTITLE4=Milk 'Em In The Mornin' Blues
TTITLE5=Catfish Boogie
TTITLE6=Mule Train
TTITLE7=Smoky Mountain Boogie
TTITLE8=Philadelphia Lawyer
TTITLE9=Country Junction
TTITLE10=Anticipation Blues
TTITLE11=Blackberry Boogie
EXTD=
EXTT0=
EXTT1=
EXTT2=
EXTT3=
EXTT4=
EXTT5=
EXTT6=
EXTT7=
EXTT8=
EXTT9=
EXTT10=
EXTT11=
PLAYORDER=
